<?xml version="1.0" encoding="UTF-8" standalone="no"?>
<!-- Created with Inkscape (http://www.inkscape.org/) -->

<svg
   xmlns:dc="http://purl.org/dc/elements/1.1/"
   xmlns:cc="http://creativecommons.org/ns#"
   xmlns:rdf="http://www.w3.org/1999/02/22-rdf-syntax-ns#"
   xmlns:svg="http://www.w3.org/2000/svg"
   xmlns="http://www.w3.org/2000/svg"
   xmlns:sodipodi="http://sodipodi.sourceforge.net/DTD/sodipodi-0.dtd"
   xmlns:inkscape="http://www.inkscape.org/namespaces/inkscape"
   width="180.65799mm"
   height="36.027218mm"
   viewBox="0 0 180.65799 36.027218"
   version="1.1"
   id="svg8"
   inkscape:version="0.92.5 (2060ec1f9f, 2020-04-08)"
   sodipodi:docname="convergence_nn2.svg">
  <defs
     id="defs2" />
  <sodipodi:namedview
     id="base"
     pagecolor="#ffffff"
     bordercolor="#666666"
     borderopacity="1.0"
     inkscape:pageopacity="0.0"
     inkscape:pageshadow="2"
     inkscape:zoom="3.959798"
     inkscape:cx="166.46576"
     inkscape:cy="56.094853"
     inkscape:document-units="mm"
     inkscape:current-layer="layer1"
     showgrid="false"
     inkscape:window-width="1920"
     inkscape:window-height="1030"
     inkscape:window-x="0"
     inkscape:window-y="27"
     inkscape:window-maximized="1" />
  <metadata
     id="metadata5">
    <rdf:RDF>
      <cc:Work
         rdf:about="">
        <dc:format>image/svg+xml</dc:format>
        <dc:type
           rdf:resource="http://purl.org/dc/dcmitype/StillImage" />
        <dc:title></dc:title>
      </cc:Work>
    </rdf:RDF>
  </metadata>
  <g
     inkscape:label="Layer 1"
     inkscape:groupmode="layer"
     id="layer1"
     transform="translate(-26.978811,-102.99918)">
    <path
       style="fill:#000000;stroke-width:0.26458332"
       d=""
       id="path852"
       inkscape:connector-curvature="0" />
    <path
       style="fill:#000000;stroke-width:0.21921028"
       d="m 59.051208,135.85239 c 0,-0.11244 0.201087,-0.26825 0.446859,-0.34627 0.804253,-0.25525 1.480722,-1.68336 2.958041,-6.24481 4.441776,-13.71461 5.62456,-16.51166 8.501847,-20.10501 1.127526,-1.40816 1.816008,-1.95152 3.876392,-3.05937 2.403549,-1.29235 3.072315,-1.43991 6.767389,-1.49329 l 3.425893,-0.0494 1.315257,0.77294 c 0.723401,0.4251 2.10442,1.43409 3.068952,2.24217 3.065724,2.56849 4.833499,3.42075 5.905427,2.84708 0.519724,-0.27816 1.686761,-0.22705 3.69814,0.16191 0.784756,0.15176 1.289645,0.43478 1.974415,1.10684 0.81234,0.79726 1.09218,0.92734 2.39066,1.11121 1.61528,0.22876 1.56566,0.20887 3.12978,1.25423 1.04066,0.69552 3.93644,1.62187 6.4667,2.06866 0.54254,0.0958 1.47127,0.39107 2.06386,0.65613 0.87313,0.39058 1.28873,0.4526 2.1921,0.32711 1.80378,-0.25056 4.53153,-0.15412 5.82,0.20579 0.65887,0.18403 1.37475,0.27851 1.59084,0.20992 0.21612,-0.0686 0.67337,0.0152 1.01619,0.18623 0.34279,0.17101 0.91617,0.26794 1.27418,0.21539 0.47935,-0.0704 0.83718,0.0612 1.35765,0.49915 0.62248,0.52378 0.8167,0.57503 1.62878,0.4299 0.50711,-0.0907 1.26728,-0.15972 1.68927,-0.15354 0.42197,0.006 1.26045,-0.0819 1.86329,-0.19557 0.60281,-0.11372 2.70021,-0.22108 4.66087,-0.23854 3.30578,-0.0294 3.60048,7.4e-4 4.05539,0.41528 0.85273,0.77709 1.95259,0.82217 3.27652,0.13429 1.03987,-0.54031 1.43672,-0.61148 3.83713,-0.68819 l 2.6773,-0.0856 0.67152,0.73476 c 0.51762,0.56632 0.85862,0.74024 1.4877,0.7587 0.44889,0.0132 1.45736,0.0974 2.24103,0.1872 1.19074,0.13638 1.61531,0.0875 2.58384,-0.29799 1.303,-0.51851 2.14204,-0.57345 3.32848,-0.21798 0.60433,0.18105 1.36701,0.17433 2.98476,-0.0263 1.19517,-0.14823 3.01152,-0.29324 4.03632,-0.32221 1.02481,-0.029 2.17109,-0.12511 2.54728,-0.21362 0.54234,-0.12756 0.87726,-0.0388 1.61719,0.42822 0.66996,0.42292 1.28296,0.60705 2.1731,0.65273 0.89267,0.0459 1.47008,0.21986 2.06187,0.62144 1.21601,0.82523 1.92058,0.91168 3.08958,0.37912 1.03658,-0.47222 1.88754,-0.43767 2.54044,0.10313 0.18086,0.14982 0.77275,0.46538 1.31531,0.70127 0.76162,0.33111 1.1303,0.38094 1.61738,0.21858 0.478,-0.15933 0.98265,-0.10102 2.08245,0.24061 3.0895,0.95976 3.78458,1.02659 9.12393,0.8774 2.45176,-0.0685 4.05538,0.1212 4.05538,0.47977 0,0.11442 -1.09076,0.14474 -2.57571,0.0716 -1.51199,-0.0745 -3.22635,-0.0247 -4.15114,0.12024 -1.08095,0.16957 -1.75836,0.1776 -2.15822,0.0255 -0.32052,-0.12187 -1.42717,-0.36883 -2.45921,-0.5488 -1.03203,-0.17997 -2.15497,-0.46616 -2.4954,-0.63599 -0.47776,-0.23834 -0.79201,-0.25568 -1.37754,-0.076 -0.63687,0.19545 -0.94536,0.15334 -1.9227,-0.26245 -0.64027,-0.27238 -1.31986,-0.63237 -1.5102,-0.79993 -0.4403,-0.38763 -1.25288,-0.37761 -1.95564,0.0241 -0.30141,0.1723 -0.85656,0.31678 -1.23368,0.32106 -0.72581,0.008 -2.16175,-0.5062 -2.71209,-0.97159 -0.18086,-0.15293 -0.90068,-0.33375 -1.59963,-0.40182 -0.78186,-0.0762 -1.63698,-0.33836 -2.22256,-0.68155 -0.92474,-0.54192 -0.97995,-0.54818 -1.94213,-0.22033 -0.76137,0.25942 -1.25036,0.29017 -2.11496,0.13302 -0.82804,-0.15049 -1.35069,-0.12652 -1.98175,0.0909 -1.20169,0.41402 -4.5371,0.48255 -5.42718,0.11152 -0.79271,-0.33045 -1.12292,-0.28472 -3.01587,0.41768 -1.17294,0.43521 -1.44713,0.46138 -2.53411,0.24173 -0.67036,-0.13544 -1.62976,-0.24628 -2.13197,-0.24628 -0.77152,0 -1.02445,-0.12326 -1.63089,-0.79483 l -0.71775,-0.79483 -2.35331,0.13189 c -1.9112,0.1071 -2.55845,0.23583 -3.44527,0.68522 -1.50514,0.76272 -3.23542,0.77262 -3.94007,0.0225 -0.49515,-0.52705 -0.52346,-0.53014 -4.0388,-0.44124 -3.46469,0.0876 -7.15984,0.37765 -8.25472,0.64789 -0.38897,0.096 -0.79222,-0.029 -1.37981,-0.42774 -0.54025,-0.36662 -1.12855,-0.56339 -1.68438,-0.56339 -0.4698,0 -0.91515,-0.0986 -0.98966,-0.21922 -0.0745,-0.12057 -0.5035,-0.21921 -0.95333,-0.21921 -0.44982,0 -1.35645,-0.12839 -2.01475,-0.28529 -0.72184,-0.17204 -2.02347,-0.25139 -3.27941,-0.1999 -3.45113,0.1415 -3.84928,0.11994 -4.40159,-0.23819 -0.29185,-0.18927 -1.02387,-0.45504 -1.6267,-0.59062 -4.51514,-1.01557 -5.74172,-1.41607 -7.14487,-2.333 -1.131,-0.73908 -1.72704,-0.97573 -2.74012,-1.08796 -1.41534,-0.15681 -2.55117,-0.72285 -3.08483,-1.53733 -0.25506,-0.38926 -0.546839,-0.52521 -1.139662,-0.531 -0.438249,-0.005 -1.043432,-0.14875 -1.344849,-0.32104 -0.70782,-0.40463 -1.748817,-0.40145 -2.288799,0.006 -1.010334,0.76418 -2.562143,0.097 -5.931589,-2.55009 -1.326223,-1.04192 -2.938548,-2.21721 -3.582947,-2.61177 l -1.171639,-0.71735 -2.156675,0.14133 c -1.313177,0.0861 -2.38953,0.0529 -2.752027,-0.0851 -0.755337,-0.28718 -2.773735,0.33779 -5.133406,1.58951 -1.956693,1.03794 -2.945747,1.94552 -4.366804,4.00703 -2.034895,2.95199 -3.605884,6.66085 -6.035471,14.24883 -2.86241,8.93975 -3.452764,10.38199 -4.432409,10.82833 -0.648663,0.29555 -0.948455,0.30736 -0.948455,0.0374 z"
       id="path865"
       inkscape:connector-curvature="0" />
    <path
       style="fill:#000000;stroke-width:0.21816362"
       d="m 58.99151,138.80818 c -0.06566,-0.17998 -0.151222,-0.52359 -0.190138,-0.76357 -0.0671,-0.41376 -0.251097,-0.4378 -3.557932,-0.46492 l -3.487175,-0.0286 -0.05936,-4.06199 c -0.04985,-3.41147 -0.110988,-4.06197 -0.381786,-4.06197 -0.177337,0 -0.322431,-0.0981 -0.322431,-0.21817 0,-0.11998 0.147261,-0.21816 0.327246,-0.21816 0.280968,0 0.327245,-0.67873 0.327245,-4.7996 0,-4.12086 -0.04628,-4.7996 -0.327245,-4.7996 -0.179985,0 -0.327246,-0.0981 -0.327246,-0.21817 0,-0.11998 0.147261,-0.21815 0.327246,-0.21815 0.278051,0 0.327245,-0.55754 0.327245,-3.70879 0,-3.15125 -0.04919,-3.70878 -0.327245,-3.70878 -0.179985,0 -0.327246,-0.0981 -0.327246,-0.21816 0,-0.11999 0.147261,-0.21817 0.327246,-0.21817 0.274724,0 0.327245,-0.47269 0.327245,-2.9452 0,-2.47252 -0.05252,-2.94521 -0.327245,-2.94521 -0.179985,0 -0.327246,-0.0982 -0.327246,-0.21817 0,-0.11999 0.147261,-0.21816 0.327246,-0.21816 0.236343,0 0.327245,-0.2424 0.327245,-0.87266 v -0.87265 h 77.994811 77.99481 l -0.0559,17.27516 -0.0559,17.27515 -1.36148,-0.0555 c -1.85277,-0.0756 -2.23822,0.0729 -2.23822,0.86247 0,0.35189 -0.0982,0.63979 -0.21816,0.63979 -0.12,0 -0.21817,-0.29265 -0.21817,-0.65033 0,-0.49359 -0.11831,-0.67913 -0.49086,-0.76978 -0.26998,-0.0656 -4.22053,-0.0922 -8.779,-0.0586 l -8.28812,0.0607 -0.11326,0.65449 c -0.14401,0.83178 -0.51156,0.82486 -0.65659,-0.0124 l -0.11119,-0.64212 h -8.50623 -8.50624 l -0.073,0.54541 c -0.11966,0.89379 -0.43,0.98814 -0.6359,0.19332 l -0.19139,-0.73873 -8.46908,-0.0572 c -6.06993,-0.041 -8.55355,0.013 -8.76727,0.19034 -0.16399,0.13611 -0.29817,0.48088 -0.29817,0.76616 0,0.78178 -0.39866,0.62272 -0.47705,-0.19033 l -0.0684,-0.70903 -8.29021,-0.0607 c -4.55963,-0.0334 -8.51112,-0.007 -8.78109,0.0586 -0.37256,0.0907 -0.49087,0.2762 -0.49087,0.76978 0,0.35769 -0.0981,0.65034 -0.21816,0.65034 -0.11999,0 -0.21817,-0.28402 -0.21817,-0.63115 0,-0.37428 -0.14045,-0.68505 -0.34508,-0.76357 -0.4506,-0.17291 -16.31233,-0.17291 -16.76292,0 -0.20464,0.0785 -0.34509,0.38929 -0.34509,0.76357 0,0.34713 -0.0982,0.63115 -0.21816,0.63115 -0.11999,0 -0.21817,-0.29265 -0.21817,-0.65034 0,-0.49358 -0.11831,-0.67912 -0.49087,-0.76978 -0.26997,-0.0656 -4.22146,-0.0921 -8.78108,-0.0586 l -8.290216,0.0607 -0.07302,0.5454 c -0.119651,0.8938 -0.429998,0.98815 -0.635901,0.19333 l -0.191374,-0.73873 -8.276398,-0.0607 c -4.552021,-0.0334 -8.497292,-0.007 -8.76727,0.0586 -0.372555,0.0907 -0.490868,0.2762 -0.490868,0.76978 0,0.87859 -0.391315,0.83044 -0.477045,-0.0588 l -0.06837,-0.70903 -8.459702,-0.0572 c -7.915775,-0.0535 -8.467511,-0.0324 -8.581146,0.32725 -0.327385,1.03615 -0.472798,1.26353 -0.594559,0.92976 z m 148.20634,-18.5442 v -16.79891 l -77.50264,0.0549 -77.502618,0.0548 -0.05641,16.47135 c -0.03103,9.05924 -0.0095,16.59407 0.04769,16.74406 0.08301,0.21746 15.796055,0.2727 77.559038,0.2727 h 77.45492 z"
       id="path878"
       inkscape:connector-curvature="0"
       sodipodi:nodetypes="ccccccssssssssssssssssccccccssscccccccccccccsccccsssccsssccccccccsccscccccccscsc" />
    <g
       aria-label="Avg Loss"
       transform="rotate(-90)"
       style="font-style:normal;font-variant:normal;font-weight:normal;font-stretch:normal;font-size:5.15810776px;line-height:1.25;font-family:sans-serif;-inkscape-font-specification:'sans-serif, Normal';font-variant-ligatures:normal;font-variant-caps:normal;font-variant-numeric:normal;font-feature-settings:normal;text-align:start;letter-spacing:0px;word-spacing:0px;writing-mode:lr-tb;text-anchor:start;fill:#000000;fill-opacity:1;stroke:none;stroke-width:0.12895271"
       id="text895">
      <path
         d="m -128.56228,30.527529 -0.4055,-1.037666 h -1.61694 l -0.40802,1.037666 h -0.49868 l 1.4482,-3.548718 h 0.54654 l 1.42553,3.548718 z m -1.21397,-3.186038 -0.0227,0.07052 q -0.063,0.209044 -0.18637,0.536463 l -0.45335,1.166115 h 1.3273 l -0.45586,-1.171152 q -0.0705,-0.173784 -0.14105,-0.392903 z"
         style="stroke-width:0.12895271"
         id="path1076" />
      <path
         d="m -126.61036,30.527529 h -0.53646 l -0.98982,-2.725133 h 0.48358 l 0.59943,1.773099 q 0.0327,0.100744 0.17378,0.59691 l 0.0881,-0.294677 0.0982,-0.297196 0.61957,-1.778136 h 0.48106 z"
         style="stroke-width:0.12895271"
         id="path1078" />
      <path
         d="m -124.19502,31.597937 q -0.44579,0 -0.71024,-0.176303 -0.26446,-0.173784 -0.34001,-0.496165 l 0.45586,-0.06548 q 0.0453,0.188895 0.19897,0.28964 0.15616,0.103263 0.40802,0.103263 0.6775,0 0.6775,-0.793362 v -0.438237 h -0.005 q -0.12845,0.261935 -0.35261,0.395421 -0.22416,0.130968 -0.52387,0.130968 -0.5012,0 -0.73795,-0.332457 -0.23423,-0.332456 -0.23423,-1.045222 0,-0.72284 0.25186,-1.06537 0.25438,-0.34505 0.77069,-0.34505 0.28964,0 0.50121,0.133487 0.21408,0.130967 0.32993,0.375272 h 0.005 q 0,-0.07556 0.0101,-0.261935 0.0101,-0.186377 0.0202,-0.204007 h 0.43069 q -0.0151,0.136004 -0.0151,0.564168 v 2.082888 q 0,1.148485 -1.14093,1.148485 z m 0.6901,-2.432975 q 0,-0.332456 -0.0907,-0.571724 -0.0907,-0.241786 -0.2569,-0.367716 -0.1637,-0.128449 -0.37275,-0.128449 -0.34757,0 -0.50624,0.25186 -0.15867,0.251861 -0.15867,0.816029 0,0.559131 0.1486,0.803436 0.14859,0.244305 0.50876,0.244305 0.21408,0 0.3803,-0.125931 0.16623,-0.12593 0.2569,-0.36016 0.0907,-0.236749 0.0907,-0.56165 z"
         style="stroke-width:0.12895271"
         id="path1080" />
      <path
         d="m -120.8503,30.527529 v -3.548718 h 0.48105 v 3.155815 h 1.79325 v 0.392903 z"
         style="stroke-width:0.12895271"
         id="path1082" />
      <path
         d="m -115.75264,29.162444 q 0,0.715284 -0.31483,1.06537 -0.31483,0.350087 -0.91425,0.350087 -0.59691,0 -0.90167,-0.36268 -0.30475,-0.365198 -0.30475,-1.052777 0,-1.41042 1.22153,-1.41042 0.62461,0 0.91929,0.345049 0.29468,0.34253 0.29468,1.065371 z m -0.47602,0 q 0,-0.564168 -0.16875,-0.818548 -0.16623,-0.256898 -0.56165,-0.256898 -0.39794,0 -0.57676,0.261935 -0.1763,0.259417 -0.1763,0.813511 0,0.538982 0.17378,0.810991 0.17631,0.269491 0.55158,0.269491 0.40801,0 0.5818,-0.261935 0.1763,-0.261935 0.1763,-0.818547 z"
         style="stroke-width:0.12895271"
         id="path1084" />
      <path
         d="m -113.14337,29.774465 q 0,0.385347 -0.29215,0.594392 -0.28964,0.209044 -0.81351,0.209044 -0.50876,0 -0.78581,-0.166228 -0.27453,-0.168747 -0.35764,-0.52387 l 0.40046,-0.07808 q 0.0579,0.219119 0.23926,0.322381 0.18134,0.100745 0.50373,0.100745 0.34504,0 0.50372,-0.105782 0.16119,-0.105781 0.16119,-0.317344 0,-0.161191 -0.11082,-0.261935 -0.11082,-0.100745 -0.35764,-0.166229 l -0.3249,-0.08563 q -0.39039,-0.100745 -0.55662,-0.196452 -0.16371,-0.09823 -0.25689,-0.236749 -0.0932,-0.138523 -0.0932,-0.340012 0,-0.372754 0.26445,-0.566686 0.26697,-0.196452 0.77573,-0.196452 0.45083,0 0.71529,0.158673 0.26697,0.158672 0.33749,0.508758 l -0.40801,0.05037 q -0.0378,-0.181339 -0.20401,-0.277046 -0.16371,-0.09823 -0.44076,-0.09823 -0.30727,0 -0.45335,0.09319 -0.14608,0.09319 -0.14608,0.282084 0,0.115856 0.0605,0.191415 0.0604,0.07556 0.17882,0.128449 0.11838,0.05289 0.49869,0.146079 0.36016,0.09067 0.51883,0.168746 0.15867,0.07556 0.24934,0.168747 0.0932,0.09319 0.14356,0.2166 0.0504,0.120894 0.0504,0.277047 z"
         style="stroke-width:0.12895271"
         id="path1086" />
      <path
         d="m -110.56431,29.774465 q 0,0.385347 -0.29216,0.594392 -0.28964,0.209044 -0.81351,0.209044 -0.50876,0 -0.78581,-0.166228 -0.27452,-0.168747 -0.35764,-0.52387 l 0.40046,-0.07808 q 0.0579,0.219119 0.23927,0.322381 0.18134,0.100745 0.50372,0.100745 0.34505,0 0.50372,-0.105782 0.16119,-0.105781 0.16119,-0.317344 0,-0.161191 -0.11082,-0.261935 -0.11082,-0.100745 -0.35764,-0.166229 l -0.3249,-0.08563 q -0.39038,-0.100745 -0.55661,-0.196452 -0.16371,-0.09823 -0.2569,-0.236749 -0.0932,-0.138523 -0.0932,-0.340012 0,-0.372754 0.26446,-0.566686 0.26697,-0.196452 0.77573,-0.196452 0.45083,0 0.71528,0.158673 0.26697,0.158672 0.33749,0.508758 l -0.40801,0.05037 q -0.0378,-0.181339 -0.20401,-0.277046 -0.16371,-0.09823 -0.44075,-0.09823 -0.30727,0 -0.45335,0.09319 -0.14608,0.09319 -0.14608,0.282084 0,0.115856 0.0604,0.191415 0.0605,0.07556 0.17883,0.128449 0.11837,0.05289 0.49868,0.146079 0.36016,0.09067 0.51883,0.168746 0.15868,0.07556 0.24934,0.168747 0.0932,0.09319 0.14357,0.2166 0.0504,0.120894 0.0504,0.277047 z"
         style="stroke-width:0.12895271"
         id="path1088" />
    </g>
    <g
       aria-label="4×10-1
3×10-1"
       transform="matrix(0.13096367,0,0,0.13096367,18.601605,58.039128)"
       style="font-style:normal;font-variant:normal;font-weight:normal;font-stretch:normal;font-size:40px;line-height:1.79999995;font-family:sans-serif;-inkscape-font-specification:'sans-serif, Normal';font-variant-ligatures:normal;font-variant-caps:normal;font-variant-numeric:normal;font-feature-settings:normal;text-align:start;letter-spacing:0px;word-spacing:0px;writing-mode:lr-tb;text-anchor:start;fill:#000004;fill-opacity:1;stroke:none"
       id="flowRoot897">
      <path
         d="m 127.92188,485.46182 v 6.23047 h -3.32032 v -6.23047 h -12.96875 v -2.73438 l 12.59766,-18.55469 h 3.69141 v 18.51563 h 3.86718 v 2.77344 z m -3.32032,-17.32422 q -0.0391,0.11719 -0.54687,1.03515 -0.50781,0.91797 -0.76172,1.28907 l -7.05078,10.39062 -1.05469,1.44531 -0.3125,0.39063 h 9.72656 z"
         style=""
         id="path1051" />
      <path
         d="m 135.73437,485.24697 6.91407,-6.91406 -6.875,-6.875 2.03125,-2.01172 6.83593,6.89453 6.83594,-6.85547 2.05078,2.05079 -6.83593,6.79687 6.875,6.875 -1.99219,2.05078 -6.89453,-6.89453 -6.95313,6.93359 z"
         style=""
         id="path1053" />
      <path
         d="M 159.36719,491.69229 V 488.704 h 7.01172 v -21.17187 l -6.21094,4.43359 v -3.32031 l 6.5039,-4.47266 h 3.24219 V 488.704 h 6.69922 v 2.98829 z"
         style=""
         id="path1055" />
      <path
         d="m 199.25,477.92275 q 0,6.89454 -2.44141,10.52735 -2.42187,3.63281 -7.16797,3.63281 -4.74609,0 -7.1289,-3.61328 -2.38281,-3.61328 -2.38281,-10.54688 0,-7.08984 2.30468,-10.625 2.32422,-3.53515 7.32422,-3.53515 4.86328,0 7.16797,3.57422 2.32422,3.57422 2.32422,10.58593 z m -3.57422,0 q 0,-5.95703 -1.38672,-8.63281 -1.36719,-2.67578 -4.53125,-2.67578 -3.24219,0 -4.66797,2.63672 -1.40625,2.63672 -1.40625,8.67187 0,5.85938 1.42578,8.57422 1.44532,2.71485 4.57032,2.71485 3.10547,0 4.55078,-2.77344 1.44531,-2.77344 1.44531,-8.51563 z"
         style=""
         id="path1057" />
      <path
         d="m 201.96777,469.80166 v -2.03125 h 6.34766 v 2.03125 z"
         style="font-size:64.99999762%;line-height:1.79999995;baseline-shift:super;fill:#000004;fill-opacity:1"
         id="path1059" />
      <path
         d="m 211.45117,475.69229 v -1.94239 h 4.55762 v -13.76172 l -4.03711,2.88184 v -2.1582 l 4.22754,-2.90723 h 2.10742 v 15.94531 h 4.35449 v 1.94239 z"
         style="font-size:64.99999762%;line-height:1.79999995;baseline-shift:super;fill:#000004;fill-opacity:1"
         id="path1061" />
      <path
         d="m 131.20312,556.09463 q 0,3.80859 -2.42187,5.89844 -2.42187,2.08984 -6.91406,2.08984 -4.17969,0 -6.67969,-1.875 -2.48047,-1.89453 -2.94922,-5.58594 l 3.63281,-0.33203 q 0.70313,4.88281 5.9961,4.88281 2.65625,0 4.16015,-1.30859 1.52344,-1.30859 1.52344,-3.88672 0,-2.24609 -1.73828,-3.49609 -1.71875,-1.26953 -4.98047,-1.26953 h -1.99219 v -3.04688 h 1.91407 q 2.89062,0 4.47265,-1.25 1.60157,-1.26953 1.60157,-3.49609 0,-2.20703 -1.3086,-3.47656 -1.28906,-1.28907 -3.84765,-1.28907 -2.32422,0 -3.76954,1.19141 -1.42578,1.19141 -1.66015,3.35937 l -3.53516,-0.27343 q 0.39063,-3.37891 2.79297,-5.27344 2.42188,-1.89453 6.21094,-1.89453 4.14062,0 6.42578,1.93359 2.30469,1.91406 2.30469,5.35156 0,2.63672 -1.48438,4.29688 -1.46484,1.64062 -4.27734,2.22656 v 0.0781 q 3.08594,0.33203 4.80468,2.07031 1.71875,1.73828 1.71875,4.375 z"
         style=""
         id="path1063" />
      <path
         d="m 135.73437,557.24697 6.91407,-6.91406 -6.875,-6.875 2.03125,-2.01172 6.83593,6.89453 6.83594,-6.85547 2.05078,2.05079 -6.83593,6.79687 6.875,6.875 -1.99219,2.05078 -6.89453,-6.89453 -6.95313,6.93359 z"
         style=""
         id="path1065" />
      <path
         d="M 159.36719,563.69229 V 560.704 h 7.01172 v -21.17187 l -6.21094,4.43359 v -3.32031 l 6.5039,-4.47266 h 3.24219 V 560.704 h 6.69922 v 2.98829 z"
         style=""
         id="path1067" />
      <path
         d="m 199.25,549.92275 q 0,6.89454 -2.44141,10.52735 -2.42187,3.63281 -7.16797,3.63281 -4.74609,0 -7.1289,-3.61328 -2.38281,-3.61328 -2.38281,-10.54688 0,-7.08984 2.30468,-10.625 2.32422,-3.53515 7.32422,-3.53515 4.86328,0 7.16797,3.57422 2.32422,3.57422 2.32422,10.58593 z m -3.57422,0 q 0,-5.95703 -1.38672,-8.63281 -1.36719,-2.67578 -4.53125,-2.67578 -3.24219,0 -4.66797,2.63672 -1.40625,2.63672 -1.40625,8.67187 0,5.85938 1.42578,8.57422 1.44532,2.71485 4.57032,2.71485 3.10547,0 4.55078,-2.77344 1.44531,-2.77344 1.44531,-8.51563 z"
         style=""
         id="path1069" />
      <path
         d="m 201.96777,541.80166 v -2.03125 h 6.34766 v 2.03125 z"
         style="font-size:64.99999762%;line-height:1.79999995;baseline-shift:super;fill:#000004;fill-opacity:1"
         id="path1071" />
      <path
         d="m 211.45117,547.69229 v -1.94239 h 4.55762 v -13.76172 l -4.03711,2.88184 v -2.1582 l 4.22754,-2.90723 h 2.10742 v 15.94531 h 4.35449 v 1.94239 z"
         style="font-size:64.99999762%;line-height:1.79999995;baseline-shift:super;fill:#000004;fill-opacity:1"
         id="path1073" />
    </g>
    <g
       aria-label="6×10-1"
       transform="matrix(0.13096367,0,0,0.13096367,18.528705,43.043411)"
       style="font-style:normal;font-variant:normal;font-weight:normal;font-stretch:normal;font-size:40px;line-height:1.79999995;font-family:sans-serif;-inkscape-font-specification:'sans-serif, Normal';font-variant-ligatures:normal;font-variant-caps:normal;font-variant-numeric:normal;font-feature-settings:normal;text-align:start;letter-spacing:0px;word-spacing:0px;writing-mode:lr-tb;text-anchor:start;fill:#000004;fill-opacity:1;stroke:none"
       id="flowRoot897-8">
      <path
         d="m 131.20312,482.68838 q 0,4.35547 -2.36328,6.875 -2.36328,2.51953 -6.52343,2.51953 -4.64844,0 -7.10938,-3.45703 -2.46094,-3.45703 -2.46094,-10.05859 0,-7.14844 2.5586,-10.97657 2.55859,-3.82812 7.28515,-3.82812 6.23047,0 7.85157,5.60547 l -3.35938,0.60547 q -1.03515,-3.35938 -4.53125,-3.35938 -3.00781,0 -4.66797,2.8125 -1.64062,2.79297 -1.64062,8.10547 0.95703,-1.77734 2.69531,-2.69531 1.73828,-0.9375 3.98438,-0.9375 3.80859,0 6.03515,2.38281 2.24609,2.38281 2.24609,6.40625 z m -3.57421,0.15625 q 0,-2.98828 -1.46485,-4.60938 -1.46484,-1.62109 -4.08203,-1.62109 -2.46094,0 -3.98437,1.44531 -1.50391,1.42578 -1.50391,3.94532 0,3.18359 1.5625,5.21484 1.58203,2.03125 4.04297,2.03125 2.53906,0 3.98437,-1.69922 1.44532,-1.71875 1.44532,-4.70703 z"
         style=""
         id="path1038" />
      <path
         d="m 135.73437,485.24697 6.91407,-6.91406 -6.875,-6.875 2.03125,-2.01172 6.83593,6.89453 6.83594,-6.85547 2.05078,2.05079 -6.83593,6.79687 6.875,6.875 -1.99219,2.05078 -6.89453,-6.89453 -6.95313,6.93359 z"
         style=""
         id="path1040" />
      <path
         d="M 159.36719,491.69229 V 488.704 h 7.01172 v -21.17187 l -6.21094,4.43359 v -3.32031 l 6.5039,-4.47266 h 3.24219 V 488.704 h 6.69922 v 2.98829 z"
         style=""
         id="path1042" />
      <path
         d="m 199.25,477.92275 q 0,6.89454 -2.44141,10.52735 -2.42187,3.63281 -7.16797,3.63281 -4.74609,0 -7.1289,-3.61328 -2.38281,-3.61328 -2.38281,-10.54688 0,-7.08984 2.30468,-10.625 2.32422,-3.53515 7.32422,-3.53515 4.86328,0 7.16797,3.57422 2.32422,3.57422 2.32422,10.58593 z m -3.57422,0 q 0,-5.95703 -1.38672,-8.63281 -1.36719,-2.67578 -4.53125,-2.67578 -3.24219,0 -4.66797,2.63672 -1.40625,2.63672 -1.40625,8.67187 0,5.85938 1.42578,8.57422 1.44532,2.71485 4.57032,2.71485 3.10547,0 4.55078,-2.77344 1.44531,-2.77344 1.44531,-8.51563 z"
         style=""
         id="path1044" />
      <path
         d="m 201.96777,469.80166 v -2.03125 h 6.34766 v 2.03125 z"
         style="font-size:64.99999762%;line-height:1.79999995;baseline-shift:super;fill:#000004;fill-opacity:1"
         id="path1046" />
      <path
         d="m 211.45117,475.69229 v -1.94239 h 4.55762 v -13.76172 l -4.03711,2.88184 v -2.1582 l 4.22754,-2.90723 h 2.10742 v 15.94531 h 4.35449 v 1.94239 z"
         style="font-size:64.99999762%;line-height:1.79999995;baseline-shift:super;fill:#000004;fill-opacity:1"
         id="path1048" />
    </g>
  </g>
</svg>
